<?xml version="1.0" encoding="utf-8"?>
<!-- Generator: Adobe Illustrator 21.0.0, SVG Export Plug-In . SVG Version: 6.00 Build 0)  -->
<svg version="1.1" id="Camada_1" xmlns="http://www.w3.org/2000/svg" xmlns:xlink="http://www.w3.org/1999/xlink" x="0px" y="0px"
	 viewBox="0 0 55.5 47.2" style="enable-background:new 0 0 55.5 47.2;" xml:space="preserve">
<style type="text/css">
	.st0{fill:#C0C0C0;}
</style>
<title>_atoms/ic_logo</title>
<desc>Created with Sketch.</desc>
<g>
	<path id="Fill-191" class="st0" d="M46.5,1.8c-0.9-1.7-3.1-2.3-4.8-1.4c-0.1,0-0.1,0.1-0.2,0.1L19.6,12.7l3.4,6.2L45.1,6.6l0,0
		C46.8,5.7,47.4,3.5,46.5,1.8"/>
	<path id="Fill-192" class="st0" d="M50.8,9.6c-0.9-1.7-3.1-2.3-4.8-1.4c-0.1,0-0.1,0.1-0.2,0.1L23.9,20.4l3.4,6.2l22.1-12.2l0,0
		C51.1,13.4,51.7,11.3,50.8,9.6"/>
	<path id="Fill-193" class="st0" d="M55.1,17.3C54.1,15.6,52,15,50.3,16c-0.1,0-0.1,0.1-0.2,0.1L28.2,28.2l3.4,6.2l22.1-12.2l0,0
		C55.4,21.2,56,19,55.1,17.3"/>
	<path id="Fill-194" class="st0" d="M48.3,27.2c-0.1,0-0.1,0.1-0.2,0.1L28,38.4c0,0,0,0,0,0c-6.9,3.7-15.5,1.3-19.3-5.6
		c-3.7-6.7-1.2-15.4,5.4-19.2c0.1,0,0.1-0.1,0.2-0.1l0,0l12.2-6.7l0,0c1.7-0.9,2.3-3.1,1.4-4.8c-0.9-1.7-3.1-2.3-4.8-1.4
		c-0.1,0-0.1,0.1-0.2,0.1L11,7.3l0,0c0,0,0,0,0,0C0.7,13-3,25.9,2.7,36.2c5.7,10.3,18.6,14,28.9,8.3c0.2-0.1,0.3-0.2,0.5-0.3
		l19.7-10.9l0,0c1.7-0.9,2.3-3.1,1.4-4.8C52.1,26.9,50,26.3,48.3,27.2"/>
</g>
</svg>
