<?xml version="1.0" encoding="UTF-8"?>
<svg width="88px" height="88px" viewBox="0 0 88 88" version="1.1" xmlns="http://www.w3.org/2000/svg" xmlns:xlink="http://www.w3.org/1999/xlink">
    <!-- Generator: sketchtool 53 (72520) - https://sketchapp.com -->
    <title>F258EDC1-9ACF-442D-BE6A-7EB5E03D65DF</title>
    <desc>Created with sketchtool.</desc>
    <g id="Web" stroke="none" stroke-width="1" fill="none" fill-rule="evenodd">
        <g id="5.2.0---Adição---Informativos---inserido" transform="translate(-794.000000, -441.000000)">
            <g id="Drag-and-drop" transform="translate(256.000000, 391.000000)">
                <g id="Group-4" transform="translate(538.000000, 50.000000)">
                    <g id="_atoms/img_select_doc">
                        <g id="img_empty_state_select_doc">
                            <circle id="Oval" fill="#FFFFFF" cx="44" cy="44" r="44"></circle>
                            <path d="M29.75,17 C27.1375,17 25.02375,19.1761194 25.02375,21.8358209 L25,60.5223881 C25,63.1820896 27.11375,65.358209 29.72625,65.358209 L58.25,65.358209 C60.8625,65.358209 63,63.1820896 63,60.5223881 L63,33.5143284 C63,32.2328358 62.50125,30.9997015 61.59875,30.1050746 L50.1275,18.4265672 C49.24875,17.5077612 48.0375,17 46.77875,17 L29.75,17 Z M46.375,31.5074627 L46.375,20.6268657 L59.4375,33.9253731 L48.75,33.9253731 C47.44375,33.9253731 46.375,32.8373134 46.375,31.5074627 Z" id="Shape" fill="#E0E0E0"></path>
                            <path d="M36.2639608,60.2473309 L39.0785739,60.2473309 L39.0785739,69.2078885 C39.0785739,70.1935498 39.8751625,71 40.8487708,71 L47.9295584,71 C48.9031667,71 49.6997553,70.1935498 49.6997553,69.2078885 L49.6997553,60.2473309 L52.5143684,60.2473309 C54.0898436,60.2473309 54.8864322,58.3118505 53.7712082,57.1828203 L45.6460044,48.9570284 C44.9556276,48.2581049 43.8404036,48.2581049 43.1500268,48.9570284 L35.024823,57.1828203 C33.909599,58.3118505 34.6884856,60.2473309 36.2639608,60.2473309 Z" id="Path" fill="#00BF95" transform="translate(44.395833, 59.716418) rotate(-360.000000) translate(-44.395833, -59.716418) "></path>
                        </g>
                    </g>
                </g>
            </g>
        </g>
    </g>
</svg>