<?xml version="1.0" encoding="UTF-8"?>
<svg width="280px" height="134px" viewBox="0 0 280 134" version="1.1" xmlns="http://www.w3.org/2000/svg" xmlns:xlink="http://www.w3.org/1999/xlink">
    <!-- Generator: Sketch 52.6 (67491) - http://www.bohemiancoding.com/sketch -->
    <title>_atoms/ic_logo</title>
    <desc>Created with Sketch.</desc>
    <g id="_atoms/ic_logo" stroke="none" stroke-width="1" fill="none" fill-rule="evenodd">
        <path d="M98.663392,49.7843703 L99.876938,46.8517785 L101.476497,46.8517785 L99.7774659,49.7843703 L98.663392,49.7843703 Z M60.6328999,48.9025313 L59.7397194,49.7448083 L59.6105591,49.595767 C58.5774104,48.4053043 57.2539847,47.8642456 55.6841805,47.8642456 C54.2117135,47.8642456 52.9636091,48.3467285 51.9253901,49.3936205 C50.8907069,50.4369765 50.4300398,51.7259773 50.4300398,53.1885705 C50.4300398,54.6496959 50.8854365,55.9441673 51.9247896,56.9833203 C52.9647432,58.0230738 54.2213872,58.4956829 55.6841805,58.4956829 C57.2606562,58.4956829 58.6139035,57.9564922 59.625103,56.732205 L59.7519949,56.5786271 L60.667525,57.4181021 L60.5487723,57.556936 C59.3262864,58.9862384 57.5552697,59.7194364 55.6841805,59.7194364 C53.8830754,59.7194364 52.3062661,59.1235379 51.02367,57.8502152 C49.7339354,56.5693537 49.1359687,55.0019512 49.1359687,53.1885705 C49.1359687,51.3753232 49.7339354,49.8079874 51.02367,48.5273261 C52.3054655,47.2547372 53.8811406,46.6404921 55.6841805,46.6404921 C57.6031044,46.6404921 59.236488,47.3237872 60.5114786,48.7652318 L60.6328999,48.9025313 Z M62.8581791,54.879796 C62.8581791,53.5368896 63.2997658,52.3693101 64.2523227,51.4167532 C65.2048797,50.4641963 66.3724591,50.0226096 67.7151654,50.0226096 C69.0590059,50.0226096 70.2083054,50.4643964 71.1606622,51.4167532 C72.1124852,52.3685763 72.572552,53.5348214 72.572552,54.879796 C72.572552,56.2247706 72.1124852,57.3910825 71.1606622,58.3428388 C70.2084388,59.2952623 69.0588725,59.7369824 67.7151654,59.7369824 C66.3724591,59.7369824 65.2047462,59.2953958 64.2523227,58.3428388 C63.2995657,57.3902819 62.8581791,56.2227025 62.8581791,54.879796 Z M64.1170914,54.879796 C64.1170914,55.8859251 64.4233133,56.7724342 65.1370305,57.494891 C65.8394061,58.2057395 66.7231132,58.5308417 67.7151654,58.5308417 C68.7099529,58.5308417 69.5745795,58.2048055 70.2759544,57.494891 C70.989338,56.7730346 71.3134396,55.8883268 71.3134396,54.879796 C71.3134396,53.8746677 70.9834671,52.9982993 70.2759544,52.2823138 C69.5705766,51.5684631 68.7182256,51.228817 67.7151654,51.228817 C66.7132394,51.228817 65.8426085,51.568263 65.1370305,52.2823138 C64.4291842,52.9986996 64.1170914,53.8771361 64.1170914,54.879796 Z M76.6587797,51.408614 C77.3117862,50.4814087 78.3397979,50.1107401 79.5699559,50.1107401 C80.5688798,50.1107401 81.4661967,50.4110911 82.1717747,51.1366836 C82.8915629,51.8766865 83.1765695,52.8205705 83.1765695,53.8404429 L83.1765695,59.5080165 L81.9174571,59.5080165 L81.9174571,54.0167039 C81.9174571,52.4468997 80.9901851,51.3167474 79.3762823,51.3167474 C77.5316789,51.3167474 76.6587797,52.8489244 76.6587797,54.5450868 L76.6587797,59.5080165 L75.3998007,59.5080165 L75.3998007,50.2516422 L76.6587797,50.2516422 L76.6587797,51.408614 Z M86.81127,57.0170114 C87.1898777,58.0590332 88.1169495,58.4956829 89.1877254,58.4956829 C90.1196674,58.4956829 91.0947073,58.1331536 91.0947073,57.0640455 C91.0947073,56.6627547 90.9768886,56.3036278 90.6557893,56.050044 C90.1941881,55.6854465 89.477402,55.3702181 88.9378777,55.1421194 C87.6118502,54.5817801 86.4620169,54.0006256 86.4620169,52.3959961 C86.4620169,50.92473 87.7005144,50.0226096 89.0997951,50.0226096 C90.2418226,50.0226096 91.1219271,50.4884138 91.6461736,51.5173594 L91.7318357,51.6854813 L90.6809408,52.223738 L90.5912758,52.0669577 C90.264906,51.4960106 89.7726159,51.228817 89.117141,51.228817 C88.3947508,51.228817 87.7209292,51.6070244 87.7209292,52.3959961 C87.7209292,53.4060614 88.849547,53.7860034 89.6294455,54.1059686 C91.0506754,54.6891912 92.3538197,55.3473348 92.3538197,57.0640455 C92.3538197,58.8319266 90.8110351,59.7018236 89.1877254,59.7018236 C87.6209234,59.7018236 86.1983592,58.976965 85.7131409,57.4199701 L85.6603693,57.2501804 L86.7456892,56.8365473 L86.81127,57.0170114 Z M99.4219416,59.7369824 C98.0790352,59.7369824 96.9114557,59.2953958 95.9588988,58.3428388 C95.0063419,57.3902819 94.5647552,56.2227025 94.5647552,54.879796 C94.5647552,53.5370897 95.0063419,52.3693101 95.9588988,51.4167532 C96.9114557,50.4639961 98.0790352,50.0226096 99.4219416,50.0226096 C100.765582,50.0226096 101.915015,50.4643964 102.867438,51.4167532 C103.819195,52.3685763 104.279128,53.5350215 104.279128,54.879796 C104.279128,56.2245705 103.819195,57.3910825 102.867438,58.3428388 C101.915215,59.2952623 100.765582,59.7369824 99.4219416,59.7369824 Z M95.8236675,54.879796 C95.8236675,55.8859251 96.1298894,56.7724342 96.8436066,57.494891 C97.5461157,58.2059396 98.4296893,58.5308417 99.4219416,58.5308417 C100.416662,58.5308417 101.281289,58.2046053 101.982731,57.494891 C102.696048,56.7730346 103.020216,55.8883268 103.020216,54.879796 C103.020216,53.8746677 102.690177,52.9982993 101.982731,52.2823138 C101.277353,51.5684631 100.425002,51.228817 99.4219416,51.228817 C98.4198154,51.228817 97.5491845,51.5680628 96.8436066,52.2823138 C96.1358937,52.9986996 95.8236675,53.8773363 95.8236675,54.879796 Z M108.365489,51.399007 C108.97333,50.4823427 109.975056,50.1107401 111.188602,50.1107401 C111.330238,50.1107401 111.510301,50.1043355 111.648335,50.1319555 L111.800378,50.1623776 L111.800378,51.4475755 L111.587824,51.4209562 C111.408694,51.3986067 111.228097,51.3872652 111.0477,51.3872652 C110.258127,51.3872652 109.565225,51.6233029 109.063929,52.2500237 C108.55516,52.8858178 108.365489,53.6526401 108.365489,54.4571564 L108.365489,59.5080165 L107.106577,59.5080165 L107.106577,50.2516422 L108.365489,50.2516422 L108.365489,51.399007 Z M121.801225,51.6002195 L121.023595,52.4820585 L120.881426,52.3330172 C120.15123,51.5680628 119.233832,51.228817 118.182003,51.228817 C117.179877,51.228817 116.309379,51.568263 115.603801,52.2823138 C114.895955,52.9988997 114.583729,53.8771361 114.583729,54.879796 C114.583729,55.8859251 114.890084,56.7724342 115.603801,57.494891 C116.306177,58.2057395 117.189884,58.5308417 118.182003,58.5308417 C119.233832,58.5308417 120.15123,58.1915959 120.881426,57.426775 L121.023595,57.2779338 L121.801225,58.1592391 L121.685341,58.2845966 C120.750531,59.2957961 119.54946,59.7369824 118.182003,59.7369824 C116.839096,59.7369824 115.671517,59.2953958 114.71896,58.3428388 C113.766403,57.3902819 113.324816,56.2227025 113.324816,54.879796 C113.324816,53.5370897 113.766403,52.3693101 114.71896,51.4167532 C115.671517,50.4639961 116.839096,50.0226096 118.182003,50.0226096 C119.54926,50.0226096 120.750531,50.4638627 121.685341,51.474862 L121.801225,51.6002195 Z M124.464755,48.641342 C124.146858,48.3455944 124.165939,47.8001991 124.455816,47.4925095 C125.207761,46.6949983 126.404628,47.9155494 125.620393,48.6417423 C125.301362,48.9370897 124.78412,48.9386241 124.464755,48.641342 Z M124.422191,59.5080165 L124.422191,50.2516422 L125.681104,50.2516422 L125.681104,59.5080165 L124.422191,59.5080165 Z M127.909985,54.879796 C127.909985,53.5370897 128.351572,52.3693101 129.304129,51.4167532 C130.256686,50.4639961 131.424265,50.0226096 132.767172,50.0226096 C134.110812,50.0226096 135.260445,50.4643964 136.212669,51.4167532 C137.164425,52.3685763 137.624358,53.5350215 137.624358,54.879796 C137.624358,56.2247706 137.164425,57.3910825 136.212669,58.3428388 C135.260445,59.2950622 134.110812,59.7369824 132.767172,59.7369824 C131.424265,59.7369824 130.256686,59.2953958 129.304129,58.3428388 C128.351572,57.3902819 127.909985,56.2227025 127.909985,54.879796 Z M129.169098,54.879796 C129.169098,55.8859251 129.47532,56.7724342 130.18897,57.494891 C130.891546,58.2057395 131.774919,58.5308417 132.767172,58.5308417 C133.762093,58.5308417 134.626386,58.2048055 135.327961,57.494891 C136.041278,56.7730346 136.365446,55.8883268 136.365446,54.879796 C136.365446,53.8746677 136.035474,52.9982993 135.327961,52.2823138 C134.622383,51.5684631 133.770232,51.228817 132.767172,51.228817 C131.765046,51.228817 130.894748,51.5680628 130.18897,52.2823138 C129.481124,52.9986996 129.169098,53.8771361 129.169098,54.879796 Z" id="Fill-157" fill="#1A1919"></path>
        <path d="M49.2645285,115.422401 L49.2645285,108.59939 L52.4656482,108.59939 C52.9844242,108.59939 53.5521022,108.804739 54.0319165,109.196623 C54.5114641,109.578433 54.8639862,110.243915 54.8639862,111.027016 C54.8639862,111.721987 54.6094684,112.299538 54.1101733,112.759672 C53.6109448,113.219605 53.0626809,113.445035 52.4656482,113.445035 L51.1244763,113.445035 L51.1244763,115.422401 L49.2645285,115.422401 Z M51.1244763,111.761148 L52.3873915,111.761148 C52.4753219,111.761148 52.5634524,111.741667 52.7300398,111.663411 C52.9157744,111.585087 53.033393,111.35005 53.033393,111.027016 C53.033393,110.684368 52.9157744,110.449464 52.7300398,110.371208 C52.5439716,110.292884 52.4656482,110.283211 52.3775177,110.283211 L51.1244763,110.283211 L51.1244763,111.761148 Z" id="Fill-158" fill="#636463"></path>
        <path d="M61.6855294,114.531489 C60.9513974,115.216852 60.0702922,115.559301 59.023,115.559301 C57.975641,115.559301 57.0946026,115.216852 56.3602705,114.531489 C55.6261385,113.836519 55.2639427,113.004382 55.2639427,112.035347 C55.2639427,111.066178 55.6261385,110.234242 56.3602705,109.539272 C57.0946026,108.844101 57.975641,108.501386 59.023,108.501386 C60.0702922,108.501386 60.9513974,108.844101 61.6855294,109.539272 C62.4198615,110.224435 62.7915976,111.056304 62.7915976,112.035347 C62.7915976,113.004382 62.4198615,113.836519 61.6855294,114.531489 Z M57.7014423,113.356905 C58.0635714,113.719034 58.5040239,113.895295 59.023,113.895295 C59.5320355,113.895295 59.972488,113.709227 60.3346838,113.347098 C60.70662,112.975095 60.8925548,112.534442 60.8925548,112.035347 C60.8925548,111.536119 60.70662,111.095466 60.3346838,110.723663 C59.972488,110.351727 59.5320355,110.165792 59.023,110.165792 C58.5138977,110.165792 58.0734452,110.351727 57.7113161,110.723663 C57.3491204,111.085859 57.1630522,111.526311 57.1630522,112.035347 C57.1630522,112.554123 57.3393132,112.994575 57.7014423,113.356905 Z" id="Fill-159" fill="#636463"></path>
        <path d="M63.3383271,115.422401 L63.3383271,108.59939 L66.4415091,108.59939 C67.1169986,108.59939 67.6945505,108.82442 68.1741647,109.284554 C68.6537789,109.74462 68.8886157,110.292884 68.8886157,110.94876 C68.8886157,111.819991 68.4287492,112.573604 67.7239051,112.896771 L69.4270726,115.422401 L67.2931262,115.422401 L65.903119,113.298262 L65.8836382,113.298262 L65.1982749,113.298262 L65.1982749,115.422401 L63.3383271,115.422401 Z M65.1982749,111.810117 L66.2359602,111.810117 C66.7351886,111.810117 67.0387419,111.516438 67.0387419,111.007535 C67.0387419,110.576757 66.7546694,110.283211 66.3925403,110.283211 L65.1982749,110.283211 L65.1982749,111.810117 Z" id="Fill-160" fill="#636463"></path>
        <path d="M75.8375846,109.529464 C76.5719168,110.214561 76.9341126,111.046697 76.9341126,112.015866 C76.9341126,112.808641 76.6600473,113.513485 76.11185,114.130198 L76.669721,114.756719 L75.4461677,115.813885 L74.8489349,115.15821 C74.3302257,115.40272 73.772288,115.520139 73.175122,115.520139 C72.1376368,115.520139 71.2565316,115.177691 70.5223997,114.502201 C69.7882677,113.816838 69.4259384,112.984902 69.4259384,112.015866 C69.4259384,111.046697 69.7882677,110.214561 70.5223997,109.529464 C71.2565316,108.844101 72.1376368,108.501386 73.175122,108.501386 C74.2226143,108.501386 75.1034526,108.844101 75.8375846,109.529464 Z M71.8633714,113.327617 C72.2255672,113.679739 72.6660197,113.856 73.175122,113.856 C73.3513163,113.856 73.4980893,113.846126 73.6253816,113.816838 L72.9010567,113.014256 L74.12461,111.95689 L74.8784229,112.798834 C74.9862344,112.593285 75.035003,112.328893 75.035003,112.015866 C75.035003,111.516438 74.8489349,111.085859 74.4868058,110.723663 C74.12461,110.351727 73.6841575,110.165792 73.175122,110.165792 C72.6660197,110.165792 72.2255672,110.351727 71.8633714,110.713656 C71.5012423,111.075985 71.3249813,111.516438 71.3249813,112.015866 C71.3249813,112.534442 71.5012423,112.965221 71.8633714,113.327617 Z" id="Fill-161" fill="#636463"></path>
        <path d="M77.7942025,108.59939 L79.6539501,108.59939 L79.6539501,112.289931 C79.6539501,113.415547 80.084729,113.836519 80.8580227,113.836519 C81.6313164,113.836519 82.0620952,113.415547 82.0620952,112.289931 L82.0620952,108.59939 L83.9218429,108.59939 L83.9218429,112.485473 C83.9218429,113.474323 83.6283635,114.228136 83.0506115,114.746912 C82.4730597,115.265821 81.7389277,115.520139 80.8580227,115.520139 C79.9769175,115.520139 79.2427855,115.265821 78.6652337,114.746912 C78.0876818,114.228136 77.7942025,113.474323 77.7942025,112.485473 L77.7942025,108.59939 Z" id="Fill-162" fill="#636463"></path>
        <polygon id="Fill-163" fill="#636463" points="85.0463244 115.422401 85.0463244 108.59939 90.0780373 108.59939 90.0780373 110.273403 86.9062055 110.273403 86.9062055 111.213084 89.8626145 111.213084 89.8626145 112.740191 86.9062055 112.740191 86.9062055 113.777676 90.1561605 113.777676 90.1561605 115.422401"></polygon>
        <path d="M96.0667103,113.063025 C96.4288394,113.562454 97.05536,113.905169 97.7698778,113.905169 C98.3769177,113.905169 98.6802708,113.738514 98.6802708,113.415547 C98.6802708,113.229612 98.5629859,113.102387 98.2985943,112.994575 C98.1713687,112.945607 98.0342694,112.896771 97.8973035,112.857609 C97.6329119,112.779353 97.1434906,112.63258 96.8205232,112.514961 C95.7730308,112.123477 95.2444478,111.467669 95.2444478,110.547269 C95.2444478,109.9012 95.4792846,109.401972 95.959099,109.039976 C96.4387132,108.677647 97.016265,108.501386 97.6915544,108.501386 C98.8173702,108.501386 99.6591135,108.863782 100.217185,109.58804 L98.9936313,110.635399 C98.690078,110.273403 98.2789801,110.096942 97.7602041,110.096942 C97.2805899,110.096942 97.016265,110.273403 97.016265,110.517914 C97.016265,110.713656 97.0847146,110.821667 97.2904637,110.909598 C97.398075,110.958567 97.5154935,110.997728 97.6329119,111.027016 C97.8678154,111.075985 98.4062056,111.232565 98.8370511,111.389345 C100.011769,111.810117 100.491183,112.426831 100.491183,113.356905 C100.491183,114.678396 99.5809902,115.520139 97.7698778,115.520139 C97.0063912,115.520139 96.3798705,115.38324 95.8806421,115.099234 C95.3912208,114.815361 95.019418,114.472646 94.7550264,114.071356 L96.0667103,113.063025 Z" id="Fill-164" fill="#636463"></path>
        <path d="M107.254484,114.531489 C106.520352,115.216852 105.639247,115.559301 104.591955,115.559301 C103.544462,115.559301 102.663357,115.216852 101.929225,114.531489 C101.195093,113.836519 100.832897,113.004382 100.832897,112.035347 C100.832897,111.066178 101.195093,110.234242 101.929225,109.539272 C102.663357,108.844101 103.544462,108.501386 104.591955,108.501386 C105.639247,108.501386 106.520352,108.844101 107.254484,109.539272 C107.988616,110.224435 108.360619,111.056304 108.360619,112.035347 C108.360619,113.004382 107.988616,113.836519 107.254484,114.531489 Z M103.270397,113.356905 C103.632593,113.719034 104.072979,113.895295 104.591955,113.895295 C105.100857,113.895295 105.541309,113.709227 105.903639,113.347098 C106.275441,112.975095 106.46151,112.534442 106.46151,112.035347 C106.46151,111.536119 106.275441,111.095466 105.903639,110.723663 C105.541309,110.351727 105.100857,110.165792 104.591955,110.165792 C104.082852,110.165792 103.6424,110.351727 103.280071,110.723663 C102.917875,111.085859 102.732007,111.526311 102.732007,112.035347 C102.732007,112.554123 102.908268,112.994575 103.270397,113.356905 Z" id="Fill-165" fill="#636463"></path>
        <polygon id="Fill-166" fill="#636463" points="109.103024 115.422401 109.103024 108.59939 110.76723 108.59939 113.625701 112.260443 113.625701 108.59939 115.407125 108.59939 115.407125 115.422401 113.889892 115.422401 110.884715 111.614442 110.884715 115.422401"></polygon>
        <polygon id="Fill-167" fill="#636463" points="116.60973 115.422401 116.60973 108.59939 118.469611 108.59939 118.469611 110.968374 121.034403 110.968374 121.034403 108.59939 122.894351 108.59939 122.894351 115.422401 121.034403 115.422401 121.034403 112.671741 118.469611 112.671741 118.469611 115.422401"></polygon>
        <path d="M123.401919,115.422401 L126.182067,108.59939 L127.885234,108.59939 L130.665382,115.422401 L128.697823,115.422401 L128.345368,114.531489 L125.721933,114.531489 L125.359804,115.422401 L123.401919,115.422401 Z M126.211355,113.092513 L127.85588,113.092513 L127.033817,110.978047 L126.211355,113.092513 Z" id="Fill-168" fill="#636463"></path>
        <path d="M130.977408,115.422401 L130.977408,108.59939 L134.08059,108.59939 C134.75608,108.59939 135.333632,108.82442 135.813246,109.284554 C136.29286,109.74462 136.527897,110.292884 136.527897,110.94876 C136.527897,111.819991 136.067764,112.573604 135.362986,112.896771 L137.066087,115.422401 L134.932141,115.422401 L133.5422,113.298262 L133.522519,113.298262 L132.837356,113.298262 L132.837356,115.422401 L130.977408,115.422401 Z M132.837356,111.810117 L133.875041,111.810117 C134.37427,111.810117 134.677823,111.516438 134.677823,111.007535 C134.677823,110.576757 134.393951,110.283211 134.031621,110.283211 L132.837356,110.283211 L132.837356,111.810117 Z" id="Fill-169" fill="#636463"></path>
        <polygon id="Fill-170" fill="#636463" points="142.115079 115.422401 142.115079 108.59939 143.779085 108.59939 146.63749 112.260443 146.63749 108.59939 148.419181 108.59939 148.419181 115.422401 146.901881 115.422401 143.896503 111.614442 143.896503 115.422401"></polygon>
        <path d="M149.12269,115.422401 L151.902838,108.59939 L153.605806,108.59939 L156.386154,115.422401 L154.418595,115.422401 L154.066073,114.531489 L151.442705,114.531489 L151.080376,115.422401 L149.12269,115.422401 Z M150.571274,107.97287 C150.688892,107.111646 151.207668,106.52422 152.020257,106.52422 C152.274641,106.52422 152.568521,106.59267 152.891288,106.739443 C153.224329,106.886216 153.46884,106.954865 153.62542,106.954865 C153.841043,106.954865 153.987816,106.817766 154.056266,106.543701 L155.015627,106.700281 C154.878528,107.708678 154.388907,108.217714 153.547163,108.217714 C153.282972,108.217714 152.989292,108.149064 152.656451,108.002358 C152.32361,107.855385 152.078899,107.786935 151.922319,107.786935 C151.697089,107.786935 151.569797,107.904353 151.530836,108.12945 L150.571274,107.97287 Z M151.932126,113.092513 L153.576451,113.092513 L152.754389,110.978047 L151.932126,113.092513 Z" id="Fill-171" fill="#636463"></path>
        <path d="M162.464025,114.531489 C161.729893,115.216852 160.848654,115.559301 159.801162,115.559301 C158.753803,115.559301 157.872765,115.216852 157.138633,114.531489 C156.404501,113.836519 156.042305,113.004382 156.042305,112.035347 C156.042305,111.066178 156.404501,110.234242 157.138633,109.539272 C157.872765,108.844101 158.753803,108.501386 159.801162,108.501386 C160.848654,108.501386 161.729893,108.844101 162.464025,109.539272 C163.198157,110.224435 163.56996,111.056304 163.56996,112.035347 C163.56996,113.004382 163.198157,113.836519 162.464025,114.531489 Z M158.479804,113.356905 C158.841933,113.719034 159.282586,113.895295 159.801162,113.895295 C160.310264,113.895295 160.75085,113.709227 161.113179,113.347098 C161.484982,112.975095 161.670917,112.534442 161.670917,112.035347 C161.670917,111.536119 161.484982,111.095466 161.113179,110.723663 C160.75085,110.351727 160.310264,110.165792 159.801162,110.165792 C159.292393,110.165792 158.851807,110.351727 158.489478,110.723663 C158.127482,111.085859 157.941214,111.526311 157.941214,112.035347 C157.941214,112.554123 158.117675,112.994575 158.479804,113.356905 Z" id="Fill-172" fill="#636463"></path>
        <polygon id="Fill-173" fill="#636463" points="169.842305 115.422401 169.842305 110.283211 168.002038 110.283211 168.002038 108.59939 173.503558 108.59939 173.503558 110.283211 171.702253 110.283211 171.702253 115.422401"></polygon>
        <polygon id="Fill-174" fill="#636463" points="174.001652 115.422401 174.001652 108.59939 179.033232 108.59939 179.033232 110.273403 175.8616 110.273403 175.8616 111.213084 178.817809 111.213084 178.817809 112.740191 175.8616 112.740191 175.8616 113.777676 179.111288 113.777676 179.111288 115.422401"></polygon>
        <polygon id="Fill-175" fill="#636463" points="179.952098 115.422401 179.952098 108.59939 181.479004 108.59939 183.691474 111.702506 185.903677 108.59939 187.430784 108.59939 187.430784 115.422401 185.708002 115.422401 185.708002 111.810117 183.691474 114.600139 181.674946 111.810117 181.674946 115.422401"></polygon>
        <polygon id="Fill-176" fill="#636463" points="193.614998 115.422401 193.614998 108.59939 195.474946 108.59939 195.474946 113.738514 198.069026 113.738514 198.069026 115.422401"></polygon>
        <polygon id="Fill-177" fill="#636463" points="198.753188 115.422401 198.753188 108.59939 200.613136 108.59939 200.613136 115.422401"></polygon>
        <polygon id="Fill-178" fill="#636463" points="201.659895 115.422401 201.659895 108.59939 203.187001 108.59939 205.399405 111.702506 207.611474 108.59939 209.138781 108.59939 209.138781 115.422401 207.415932 115.422401 207.415932 111.810117 205.399405 114.600139 203.382877 111.810117 203.382877 115.422401"></polygon>
        <polygon id="Fill-179" fill="#636463" points="209.988797 115.422401 209.988797 108.59939 211.848745 108.59939 211.848745 115.422401"></polygon>
        <polygon id="Fill-180" fill="#636463" points="214.226868 115.422401 214.226868 110.283211 212.386601 110.283211 212.386601 108.59939 217.888054 108.59939 217.888054 110.283211 216.086749 110.283211 216.086749 115.422401"></polygon>
        <polygon id="Fill-181" fill="#636463" points="218.386215 115.422401 218.386215 108.59939 223.417595 108.59939 223.417595 110.273403 220.246163 110.273403 220.246163 111.213084 223.202372 111.213084 223.202372 112.740191 220.246163 112.740191 220.246163 113.777676 223.495851 113.777676 223.495851 115.422401"></polygon>
        <path d="M225.305696,113.063025 C225.668025,113.562454 226.294546,113.905169 227.009197,113.905169 C227.616104,113.905169 227.91939,113.738514 227.91939,113.415547 C227.91939,113.229612 227.801972,113.102387 227.53778,112.994575 C227.410288,112.945607 227.273189,112.896771 227.136289,112.857609 C226.871898,112.779353 226.382677,112.63258 226.059509,112.514961 C225.01215,112.123477 224.483567,111.467669 224.483567,110.547269 C224.483567,109.9012 224.718471,109.401972 225.198085,109.039976 C225.677833,108.677647 226.255184,108.501386 226.930941,108.501386 C228.056356,108.501386 228.898433,108.863782 229.456371,109.58804 L228.232751,110.635399 C227.929264,110.273403 227.518099,110.096942 226.99939,110.096942 C226.519576,110.096942 226.255184,110.273403 226.255184,110.517914 C226.255184,110.713656 226.323834,110.821667 226.52945,110.909598 C226.637061,110.958567 226.754479,110.997728 226.871898,111.027016 C227.107002,111.075985 227.645392,111.232565 228.07597,111.389345 C229.250555,111.810117 229.730369,112.426831 229.730369,113.356905 C229.730369,114.678396 228.820176,115.520139 227.009197,115.520139 C226.245377,115.520139 225.618857,115.38324 225.119762,115.099234 C224.63034,114.815361 224.258337,114.472646 223.994146,114.071356 L225.305696,113.063025 Z" id="Fill-182" fill="#636463"></path>
        <polygon id="Fill-183" fill="#1A1919" points="56.0599195 71.8079296 56.0599195 77.6568347 66.9999805 77.6568347 66.9999805 83.084768 56.0599195 83.084768 56.0599195 89.4804026 69.9453815 89.4804026 69.9453815 95.0764577 49.3277077 95.0764577 49.3277077 66.2118744 69.9453815 66.2118744 69.9453815 71.8079296"></polygon>
        <path d="M79.0755977,73.7015018 L79.0755977,76.9834133 L79.1597921,76.9834133 C80.2537848,74.4589173 82.3154788,73.2807302 85.0926246,73.2807302 C87.9117341,73.2807302 89.6790148,74.4589173 90.9413295,76.9834133 C92.0351888,74.4589173 94.5176544,73.2807302 97.1686421,73.2807302 C99.0620809,73.2807302 101.123775,73.9540181 102.38609,75.4687824 C103.816726,77.1518687 103.522313,79.5923706 103.522313,81.7382589 L103.522313,95.0764577 L97.3367639,95.0764577 L97.3367639,83.757789 C97.3367639,82.9162459 97.4211584,80.812388 97.2106726,80.0128086 C96.8740286,78.6664996 95.8641635,78.287892 94.5598183,78.287892 C93.4658255,78.287892 92.3298023,78.9189493 91.8668669,79.9288144 C91.4041315,80.9386795 91.4460953,82.6218325 91.4460953,83.757789 L91.4460953,95.0764577 L85.2609466,95.0764577 L85.2609466,83.757789 C85.2609466,81.5277731 85.6817182,78.2457281 82.4838008,78.2457281 C79.2439197,78.2457281 79.3700778,81.4436454 79.3700778,83.757789 L79.3700778,95.0764577 L73.1849291,95.0764577 L73.1849291,73.7015018 L79.0755977,73.7015018 Z" id="Fill-184" fill="#1A1919"></path>
        <path d="M107.561373,66.2118744 L113.746722,66.2118744 L113.746722,76.3945199 L113.915044,76.3945199 C114.966873,74.2905953 116.734154,73.2807302 119.132491,73.2807302 C125.233646,73.2807302 127.085054,79.3397208 127.085054,84.388913 C127.085054,89.9853018 124.855038,95.4974295 118.41724,95.4974295 C115.345681,95.4974295 113.87288,94.3614063 112.316085,91.7945462 C111.55867,92.7200835 111.30622,93.9404345 110.927613,95.0764577 L107.561373,95.0764577 L107.561373,66.2118744 Z M113.83085,86.1141632 C113.83085,87.2923503 113.87288,88.6386593 114.546101,89.6906883 C115.135195,90.6163591 116.018702,91.1634889 117.154925,91.1634889 C120.647256,91.1634889 120.647256,86.7032568 120.647256,84.388913 C120.647256,81.9905751 120.647256,77.5304764 117.239053,77.5304764 C114.251688,77.5304764 113.83085,80.7705577 113.83085,83.0426041 L113.83085,86.1141632 Z" id="Fill-185" fill="#1A1919"></path>
        <path d="M136.173507,73.7015018 L136.173507,77.6989986 L136.257635,77.6989986 C136.888692,75.4266185 138.151273,73.0704445 140.844225,73.2807302 L141.896054,73.3649245 L141.896054,79.5502067 C137.183372,79.2977571 136.594278,83.1267317 136.594278,86.9137427 L136.594278,95.0764577 L130.40893,95.0764577 L130.40893,73.7015018 L136.173507,73.7015018 Z" id="Fill-186" fill="#1A1919"></path>
        <path d="M156.496367,95.0764577 C156.243918,93.9825984 156.15959,92.8464418 156.201754,91.7523823 C154.434673,94.2770785 152.583265,95.4974295 149.385347,95.4974295 C145.598537,95.4974295 142.653269,93.4774991 142.653269,89.4382387 C142.653269,86.2824852 144.630835,84.1363967 147.449745,83.084768 C149.890247,82.1590305 153.29845,81.9905751 155.907073,81.7382589 L155.907073,81.2331596 C155.907073,80.3074221 155.991468,79.2136295 155.360344,78.41405 C154.813281,77.6989986 153.761252,77.4043851 152.835514,77.4043851 C150.858148,77.4043851 149.132898,78.41405 149.132898,80.5181081 L143.284326,79.9709783 C143.915584,74.7955613 148.964576,73.2807302 153.466772,73.2807302 C155.654824,73.2807302 158.516097,73.7856961 160.241014,75.2163328 C162.429066,76.9834133 162.218781,79.3397208 162.218781,81.9065809 L162.218781,91.8787405 C162.218781,92.9725331 162.302908,94.0245622 162.639552,95.0764577 L156.496367,95.0764577 Z M155.907073,84.8518485 C153.550966,85.1044983 149.217025,85.6514279 149.217025,88.7649508 C149.217025,90.4481038 150.226891,91.5840603 151.952007,91.5840603 C153.214322,91.5840603 154.350345,90.9108391 155.06573,89.8168464 C155.949304,88.4705374 155.907073,87.2080226 155.907073,85.6933917 L155.907073,84.8518485 Z" id="Fill-187" fill="#1A1919"></path>
        <path d="M179.428251,81.8222531 C179.428251,79.8866505 178.418186,77.9932785 176.18817,77.9932785 C172.779834,77.9932785 172.359195,81.3594511 172.359195,84.0946331 C172.359195,86.7032568 172.401226,90.4059399 175.93572,90.4059399 C178.123773,90.4059399 179.217632,88.6808232 179.428251,86.7032568 L185.318987,87.0399007 C184.814021,92.3414758 180.816724,95.4974295 175.599077,95.4974295 C169.119314,95.4974295 165.29034,90.9108391 165.29034,84.5993989 C165.29034,78.0354424 169.245673,73.2807302 175.977684,73.2807302 C180.942882,73.2807302 184.898215,76.4786476 185.318987,81.4858093 L179.428251,81.8222531 Z" id="Fill-188" fill="#1A1919"></path>
        <path d="M207.998021,84.5573685 C207.998021,90.6583895 204.000724,95.4974295 197.689284,95.4974295 C191.125127,95.4974295 187.548602,90.5320313 187.548602,84.3470827 C187.548602,78.11957 191.167291,73.2807302 197.689284,73.2807302 C204.379332,73.2807302 207.998021,78.2457281 207.998021,84.5573685 Z M194.196687,83.7158253 C194.196687,86.1563271 194.154923,91.3737746 197.689284,91.3737746 C201.181615,91.3737746 201.349937,87.1661923 201.349937,84.5993989 C201.349937,82.9162459 201.265742,80.8967158 200.676649,79.2977571 C200.17175,77.9092843 199.161885,77.3621545 197.731248,77.3621545 C194.407373,77.3621545 194.196687,81.2755236 194.196687,83.7158253 Z" id="Fill-189" fill="#1A1919"></path>
        <path d="M211.238102,73.7015018 L217.086607,73.7015018 L217.086607,77.3199906 L217.170801,77.3199906 C218.432916,74.5850754 220.200397,73.2807302 223.31392,73.2807302 C225.33385,73.2807302 227.311216,73.9117875 228.573531,75.6371044 C229.751718,77.2360631 229.751718,79.9288144 229.751718,81.864417 L229.751718,95.0764577 L223.566369,95.0764577 L223.566369,83.5896672 C223.566369,81.4016817 223.860849,78.2037643 220.74726,78.2037643 C219.653267,78.2037643 218.643602,78.8350218 218.138636,79.8025229 C217.507379,81.023074 217.423251,82.2430247 217.423251,83.5896672 L217.423251,95.0764577 L211.238102,95.0764577 L211.238102,73.7015018 Z" id="Fill-190" fill="#1A1919"></path>
        <path d="M221.045342,20.9392678 C220.103727,19.236634 217.960107,18.619787 216.257339,19.5615361 C216.204568,19.5906905 216.152997,19.6211126 216.102294,19.6525354 L194.191016,31.7713172 L197.599219,37.9337161 L219.67068,25.7264701 L219.670279,25.7257363 C221.370778,24.7831866 221.986558,22.641101 221.045342,20.9392678" id="Fill-191" fill="#BA2229"></path>
        <path d="M225.338987,28.7021598 C224.397171,26.9997929 222.253551,26.3828791 220.550984,27.3244948 C220.498213,27.3537827 220.446575,27.3840713 220.395938,27.4156275 L198.48446,39.5344094 L201.892864,45.696875 L223.964324,33.4893622 L223.963924,33.4886283 C225.664423,32.5460786 226.280002,30.403993 225.338987,28.7021598" id="Fill-192" fill="#BA2229"></path>
        <path d="M229.632432,36.465252 C228.690816,34.7626849 226.547196,34.1457712 224.844629,35.0873868 C224.791857,35.1167414 224.74002,35.1469633 224.689383,35.1785195 L202.778105,47.2973014 L206.186508,53.459767 L228.257902,41.2523209 L228.257369,41.2515203 C229.957867,40.3090374 230.573647,38.1669518 229.632432,36.465252" id="Fill-193" fill="#BA2229"></path>
        <path d="M222.840777,46.3334029 C222.787805,46.3626908 222.736168,46.3929794 222.685531,46.4245356 L202.609783,57.5281818 C202.608649,57.5287155 202.607715,57.5289157 202.606781,57.5295161 C195.721325,61.2588186 187.10855,58.7857598 183.325342,51.9088431 C179.653481,45.2346734 182.128608,36.4758597 188.737597,32.688315 C188.810917,32.6463513 188.885104,32.6071896 188.958824,32.5666936 L188.962427,32.5731649 L201.121304,25.8482918 L201.120904,25.847291 C202.821403,24.9049415 203.437183,22.7626558 202.495967,21.0610227 C201.554151,19.3584556 199.410598,18.7415419 197.707964,19.6833577 C197.655193,19.7124454 197.603555,19.742734 197.552919,19.7742902 L185.554024,26.4106993 L185.560295,26.4218407 C185.551555,26.4267776 185.542682,26.4313142 185.534009,26.4361844 C175.261899,32.117368 171.540535,45.0500729 177.221719,55.3221833 C182.903036,65.5940267 195.815526,69.3426765 206.08757,63.661493 C206.251155,63.570894 206.412472,63.4778266 206.572655,63.3836917 L226.253917,52.498337 L226.253516,52.4975364 C227.954015,51.5549867 228.569795,49.4129011 227.62858,47.711268 C226.686964,46.0085008 224.543144,45.3917872 222.840777,46.3334029" id="Fill-194" fill="#BA2229"></path>
    </g>
</svg>