<svg id="Guide" height="512" viewBox="0 0 512 512" width="512" xmlns="http://www.w3.org/2000/svg" fill="#e8e8e8"><g fill="#e8e8e8"><path d="m93.756 506.17h324.488a26.029 26.029 0 0 0 26-26v-448.34a26.029 26.029 0 0 0 -26-26h-324.488a26.029 26.029 0 0 0 -26 26v448.34a26.029 26.029 0 0 0 26 26zm-14-474.34a14.016 14.016 0 0 1 14-14h324.488a14.016 14.016 0 0 1 14 14v448.34a14.016 14.016 0 0 1 -14 14h-324.488a14.016 14.016 0 0 1 -14-14z"/><path d="m122.524 476.949h89.4.02.016 38.389.019.019 9.149.02.018 36.5.031.019 93.355a26.029 26.029 0 0 0 26-26v-389.898a26.029 26.029 0 0 0 -26-26h-266.955a26.029 26.029 0 0 0 -26 26v389.9a26.029 26.029 0 0 0 26 25.998zm246.505-12h-63.965l22.215-53.949a8 8 0 0 0 .745-6.395l-4.6-14.962 14.695.453a8 8 0 0 0 7.585-11.181l-22.479-51.381a112.388 112.388 0 0 1 45.8 90.91zm-101.343 0 42.414-137.484 22.07 50.445-13.961-.43a8 8 0 0 0 -7.893 10.346l5.782 18.819-24.011 58.3zm-51.61 0-22.254-58.276 5.791-18.849a8 8 0 0 0 -7.894-10.344l-13.962.43 21.893-50.061 42.576 137.1zm39.052 0h-.337l-44.966-144.8c1.686.365 3.466.772 5.379 1.212 11.3 2.6 25.371 5.84 43.7 5.441a160.586 160.586 0 0 0 40.674-5.952zm-90.937-85.966a8 8 0 0 0 7.609 11.117l14.7-.453-4.6 14.961a8 8 0 0 0 .693 6.307l20.635 54.035h-60.26v-46.5c0-21.372 5.4-42.812 15.217-60.37 7.618-13.63 17.53-24.448 29.093-31.894zm-55.667-317.932a14.015 14.015 0 0 1 14-14h266.952a14.015 14.015 0 0 1 14 14v389.9a14.015 14.015 0 0 1 -14 14h-8.447v-46.5a124.969 124.969 0 0 0 -67.962-111.256q-.245-.142-.5-.261c-.227-.116-.448-.24-.676-.354l-.534-.264c-.049-.025-.1-.043-.149-.066-.1-.044-.193-.087-.292-.126s-.207-.079-.312-.114c-.049-.017-.095-.038-.145-.053-.034-.011-.068-.016-.1-.026-.117-.034-.235-.063-.353-.09-.078-.017-.157-.035-.235-.049-.115-.022-.23-.038-.345-.052-.085-.01-.169-.021-.253-.028-.107-.008-.213-.012-.32-.015s-.185 0-.277 0-.194.008-.291.015-.2.013-.3.025-.183.026-.275.041-.2.033-.3.055-.183.044-.275.069-.185.049-.277.079c-.049.015-.1.031-.148.048a148.183 148.183 0 0 1 -48.069 8.789c-16.84.356-30.1-2.686-40.751-5.138-4.2-.967-8.174-1.881-11.77-2.437a19.919 19.919 0 0 0 -3.093-.222 5.968 5.968 0 0 0 -3.572-.006 6.052 6.052 0 0 0 -1.4.646 20.393 20.393 0 0 0 -2.319.748c-38.736 15.238-64.765 59.463-64.765 110.038v46.5h-8.447a14.015 14.015 0 0 1 -14-14z"/><path d="m256 299.418a75.776 75.776 0 1 0 -75.776-75.775 75.861 75.861 0 0 0 75.776 75.775zm0-139.551a63.776 63.776 0 1 1 -63.776 63.776 63.848 63.848 0 0 1 63.776-63.776z"/></g></svg>