<?xml version="1.0"?>
<svg xmlns="http://www.w3.org/2000/svg" id="line" viewBox="0 0 64 64" width="512" height="512"><path fill="#e8e8e8" d="M10,59h3v2a1,1,0,0,0,1.707.707L18,58.414l3.293,3.293A1,1,0,0,0,23,61V59H46a1,1,0,0,0,1-1V50.414l4.293,4.293a1,1,0,0,0,1.414,0l8-8a1,1,0,0,0,0-1.414L47,31.586V25.414L59.207,13.207a4.535,4.535,0,0,0-6.414-6.414L47,12.586V3a1,1,0,0,0-1-1H9.045A6.052,6.052,0,0,0,3,8.045V52A7.008,7.008,0,0,0,10,59ZM54.207,8.207a2.6,2.6,0,0,1,3.586,0,2.537,2.537,0,0,1,0,3.586L57,12.586,53.414,9ZM52,10.414,55.586,14,54,15.586,50.414,12Zm-5,5,2-2L50.086,14.5,47,17.586Zm0,5,4.5-4.5L52.586,17,47,22.586ZM47,46V34.414L49.086,36.5l-1.793,1.793,1.414,1.414L50.5,37.914,52.086,39.5l-1.793,1.793,1.414,1.414L53.5,40.914,55.086,42.5l-1.793,1.793,1.414,1.414L56.5,43.914,58.586,46,52,52.586l-5-5ZM21,58.586l-2.293-2.293a1,1,0,0,0-1.414,0L15,58.586V51h6ZM5,27V25.01A3.014,3.014,0,0,1,8.01,22H9v7H8.01A4.96,4.96,0,0,0,5,30.031Zm0,9V34.01A3.014,3.014,0,0,1,8.01,31H9V43h2V6H9V20H8.01A4.96,4.96,0,0,0,5,21.031V8.045A4.049,4.049,0,0,1,9.045,4H45V45H10a6.973,6.973,0,0,0-5,2.111Zm5,11H45V57H23V50a1,1,0,0,0-1-1H14a1,1,0,0,0-1,1v7H10a5,5,0,0,1,0-10Z"/><path fill="#e8e8e8" d="M20,19a2,2,0,0,1,1.874,1.335,1,1,0,0,0,.942.665H33.184a1,1,0,0,0,.942-.665A2,2,0,0,1,36,19a1,1,0,0,0,1-1V12a1,1,0,0,0-1-1,2,2,0,0,1-1.874-1.335A1,1,0,0,0,33.184,9H22.816a1,1,0,0,0-.942.665A2,2,0,0,1,20,11a1,1,0,0,0-1,1v6A1,1,0,0,0,20,19Zm1-6.129A4.009,4.009,0,0,0,23.451,11h9.1A4.009,4.009,0,0,0,35,12.871v4.258A4.009,4.009,0,0,0,32.549,19h-9.1A4.009,4.009,0,0,0,21,17.129Z"/></svg>
